<svg id="Layer_1" data-name="Layer 1" xmlns="http://www.w3.org/2000/svg" viewBox="0 0 104 150.5"><title>lock</title><rect x="0.5" y="67" width="103" height="83" style="fill:#faf071;stroke:#b7bf34;stroke-miterlimit:10"/><path d="M266.5,271.75c-22.11,0-35,20-35,49.25h-14c0-35.1,21.92-63.5,49-63.5" transform="translate(-216.17 -257)" style="fill:#d2d2d1;stroke:#7d7d7d;stroke-miterlimit:10"/><path d="M266.5,271.75c23.77,0,39.5,19.4,39.5,49.25h12.5c0-35.37-24.92-63.5-52-63.5" transform="translate(-216.17 -257)" style="fill:#d2d2d1;stroke:#7d7d7d;stroke-miterlimit:10"/><circle cx="51.58" cy="99.75" r="12" style="fill:#b1a63b;stroke:#b7bf34;stroke-miterlimit:10"/><rect x="47.08" y="107.25" width="8.5" height="22" style="fill:#b1a63b"/><path d="M222,327.75h30.25s-22.5.25-25.25,5.5c0,0,14.5,70.25,47,70H219l.25-75.75Z" transform="translate(-216.17 -257)" style="fill:#f2e45b"/></svg>